<?xml version="1.0" encoding="utf-8"?>
<!-- Generator: Adobe Illustrator 26.0.3, SVG Export Plug-In . SVG Version: 6.00 Build 0)  -->
<svg version="1.1" id="Layer_1" xmlns="http://www.w3.org/2000/svg" xmlns:xlink="http://www.w3.org/1999/xlink" x="0px" y="0px"
	 viewBox="0 0 269.9 270.5" style="enable-background:new 0 0 269.9 270.5;" xml:space="preserve">
<style type="text/css">
	.st0{fill:#531E6C;}
	.st1{fill:#DFE0E1;}
	.st2{fill:#FFFFFF;}
	.st3{fill:#162745;}
	.st4{fill:#652B81;}
</style>
<path class="st0" d="M137.4,266.2c-34.7,0-67.2-13.5-91.7-38c-24.5-24.5-40.7-59.8-40.7-94.4V4h129.7c34.7,0,69.9,16.2,94.4,40.7
	c24.5,24.5,38,57.1,38,91.7s-13.5,67.2-38,91.7C204.6,252.7,172,266.2,137.4,266.2z"/>
<circle class="st1" cx="137.4" cy="136.5" r="106.3"/>
<polygon class="st2" points="16.1,26.4 34.4,43.9 62.2,16 34.4,30.4 "/>
<path class="st0" d="M89.7,61.2v5.9c0,1.8,1.5,3.3,3.3,3.3h0.8v3.4H93c-3.7,0-6.7-3-6.7-6.7v-5.9h-2v-2.9h2V54h3.4v4.2h4.2v2.9H89.7
	z M95.5,73.9h3.6v-8.8c0-2.4,1.4-3.9,3.3-3.9c2,0,3.2,1.4,3.2,3.8v8.9h3.6v-8.8c0-2.5,1.4-3.9,3.3-3.9c2,0,3.2,1.3,3.2,3.8v8.9h3.6
	v-10c0-3.8-2.1-6-5.5-6c-2.4,0-4,1.1-5.3,2.8c-0.8-1.7-2.4-2.8-4.7-2.8c-2.4,0-3.8,1.3-4.8,2.7v-2.4h-3.6V73.9z M113.8,57.9
	c-2.4,0-4,1.1-5.3,2.8c-0.8-1.7-2.4-2.8-4.7-2.8c-2.4,0-3.8,1.3-4.8,2.7v-2.4h-3.6v15.6h3.6v-8.8c0-2.4,1.4-3.9,3.3-3.9
	s3.2,1.4,3.2,3.8v8.9h3.6v-8.8c0-2.5,1.4-3.9,3.3-3.9c2,0,3.2,1.3,3.2,3.8v8.9h3.6v-10C119.3,60.1,117.2,57.9,113.8,57.9"/>
<path class="st3" d="M191,63.9v10h-3.6V65c0-2.5-1.2-3.8-3.2-3.8c-2,0-3.3,1.4-3.3,3.9v8.8h-3.6V65c0-2.4-1.2-3.8-3.2-3.8
	c-1.9,0-3.3,1.4-3.3,3.7v9h0h-3.6h0v-2.4c-1,1.5-2.5,2.7-4.9,2.7c-3.5,0-5.6-2.4-5.6-6v-9.9h3.6v8.9c0,2.4,1.2,3.8,3.3,3.8
	c2,0,3.4-1.3,3.5-3.7v-9h0h3.6h0v2.4c1-1.4,2.4-2.7,4.8-2.7c2.3,0,3.8,1.1,4.7,2.8c1.2-1.7,2.9-2.8,5.3-2.8
	C188.9,57.9,191,60.1,191,63.9z M155.8,58.3c-2.5,0-4.2,1.6-5.1,3.8v-3.8H147v15.6h3.6v-5.6c0-4.1,2.1-6.1,5.1-6.2V58.3z
	 M132.9,58.3h-6.5v-0.7c0-1.6,0.6-2.4,2-2.4c0.8,0,1.4,0.1,2.1,0.4v-3c-0.8-0.2-1.7-0.4-2.9-0.4c-1.5,0-2.7,0.4-3.5,1.2
	c-0.8,0.8-1.3,2.1-1.3,3.8v1h-5c0.9,0.7,1.6,1.7,2,3h3v12.7h3.6V61.2h3.5C130.7,60,131.7,59,132.9,58.3z M146,66.2
	c0-4.6-3.7-8.3-8.3-8.3c-4.6,0-8.3,3.7-8.3,8.3c0,4.6,3.7,8.3,8.3,8.3C142.3,74.4,146,70.7,146,66.2z M137.7,70.8
	c-2.6,0-4.7-2.1-4.7-4.7c0-2.6,2.1-4.7,4.7-4.7s4.7,2.1,4.7,4.7C142.4,68.7,140.3,70.8,137.7,70.8z M137.7,57.9
	c-4.6,0-8.3,3.7-8.3,8.3s3.7,8.3,8.3,8.3s8.3-3.7,8.3-8.3S142.3,57.9,137.7,57.9 M137.7,70.8c-2.6,0-4.7-2.1-4.7-4.7
	c0-2.6,2.1-4.7,4.7-4.7c2.6,0,4.7,2.1,4.7,4.7C142.4,68.7,140.3,70.8,137.7,70.8"/>
<g>
	<path class="st4" d="M82.4,132.9L82.4,132.9c0-8.6,6.7-15.6,16-15.6c9.2,0,15.9,6.9,15.9,15.4v0.1c0,8.5-6.7,15.5-16,15.5
		S82.4,141.4,82.4,132.9z M107.4,132.9L107.4,132.9c0-5.2-3.8-9.5-9.1-9.5s-9,4.2-9,9.3v0.1c0,5.1,3.8,9.4,9.1,9.4
		C103.7,142.3,107.4,138.1,107.4,132.9z"/>
	<path class="st4" d="M117.3,124.9h6.5v3.3c1.6-2.1,3.8-3.7,7.1-3.7c5.3,0,10.4,4.2,10.4,11.8v0.1c0,7.7-5,11.8-10.4,11.8
		c-3.5,0-5.6-1.6-7.1-3.4v9.8h-6.5V124.9z M134.9,136.4L134.9,136.4c0-3.9-2.6-6.4-5.6-6.4c-3,0-5.6,2.5-5.6,6.3v0.1
		c0,3.8,2.5,6.3,5.6,6.3C132.3,142.7,134.9,140.3,134.9,136.4z"/>
	<path class="st4" d="M142.9,136.5L142.9,136.5c0-6.6,4.7-12,11.3-12c7.7,0,11.2,5.9,11.2,12.4c0,0.5,0,1.1-0.1,1.7h-16
		c0.6,3,2.7,4.5,5.6,4.5c2.2,0,3.8-0.7,5.6-2.4l3.7,3.3c-2.1,2.7-5.2,4.3-9.4,4.3C148,148.3,142.9,143.5,142.9,136.5z M159.1,134.6
		c-0.4-2.9-2.1-4.9-4.8-4.9c-2.7,0-4.4,1.9-5,4.9H159.1z"/>
	<path class="st4" d="M168.1,124.9h6.5v3.2c1.5-1.9,3.4-3.7,6.7-3.7c4.9,0,7.8,3.2,7.8,8.5v14.8h-6.5V135c0-3.1-1.5-4.7-3.9-4.7
		s-4.1,1.6-4.1,4.7v12.8h-6.5V124.9z"/>
	<path class="st4" d="M104,156.7h6.1l12.8,30.2H116l-2.7-6.7h-12.7l-2.7,6.7h-6.7L104,156.7z M110.9,174.3l-4-9.7l-4,9.7H110.9z"/>
	<path class="st4" d="M125.3,156.9h12.2c7.1,0,11.5,4.2,11.5,10.4v0.1c0,6.9-5.4,10.5-12.1,10.5h-5v9h-6.6V156.9z M137.1,172
		c3.3,0,5.2-2,5.2-4.5v-0.1c0-3-2.1-4.5-5.3-4.5h-5.1v9.2H137.1z"/>
	<path class="st4" d="M152.1,156.9h6.6v29.9h-6.6V156.9z"/>
	<path class="st4" d="M161.5,183.8l2.8-4.3c2.5,1.8,5.1,2.7,7.2,2.7c1.9,0,2.7-0.7,2.7-1.7v-0.1c0-1.4-2.2-1.9-4.7-2.7
		c-3.2-0.9-6.8-2.4-6.8-6.9v-0.1c0-4.7,3.8-7.3,8.4-7.3c2.9,0,6.1,1,8.6,2.7l-2.5,4.5c-2.3-1.3-4.5-2.1-6.2-2.1
		c-1.6,0-2.4,0.7-2.4,1.6v0.1c0,1.3,2.2,1.9,4.7,2.7c3.2,1.1,6.9,2.6,6.9,6.8v0.1c0,5.1-3.8,7.4-8.8,7.4
		C168.1,187.2,164.6,186.2,161.5,183.8z"/>
</g>
<g>
	<path class="st3" d="M86.7,92.7l1.2-1.8c1,0.7,2.1,1.1,3,1.1c0.8,0,1.1-0.3,1.1-0.7v0c0-0.6-0.9-0.8-2-1.1c-1.3-0.4-2.9-1-2.9-2.9
		v0c0-1.9,1.6-3,3.5-3c1.2,0,2.5,0.4,3.6,1.1l-1,1.9c-0.9-0.6-1.9-0.9-2.6-0.9c-0.7,0-1,0.3-1,0.7v0c0,0.5,0.9,0.8,1.9,1.1
		c1.3,0.4,2.9,1.1,2.9,2.8v0c0,2.1-1.6,3.1-3.7,3.1C89.4,94.1,87.9,93.7,86.7,92.7z"/>
	<path class="st3" d="M95.5,80.9h2.7v6.9l3.2-3.5h3.2l-3.6,3.8l3.8,5.8h-3.1L99.2,90l-1,1v2.9h-2.7V80.9z"/>
	<path class="st3" d="M105.2,80.9h2.9v2.4h-2.9V80.9z M105.3,84.4h2.7v9.6h-2.7V84.4z"/>
	<path class="st3" d="M109.8,80.9h2.7v13h-2.7V80.9z"/>
	<path class="st3" d="M114.3,80.9h2.7v13h-2.7V80.9z"/>
	<path class="st3" d="M122.6,89.2L122.6,89.2c0-2.8,2.1-5,5-5c1.8,0,2.9,0.6,3.8,1.6l-1.7,1.8c-0.6-0.6-1.2-1.1-2.2-1.1
		c-1.4,0-2.3,1.2-2.3,2.6v0c0,1.5,0.9,2.6,2.4,2.6c0.9,0,1.5-0.4,2.2-1l1.6,1.6c-0.9,1-2,1.7-3.9,1.7
		C124.7,94.1,122.6,91.9,122.6,89.2z"/>
	<path class="st3" d="M131.6,89.2L131.6,89.2c0-2.8,1.9-5,4.7-5c3.2,0,4.7,2.5,4.7,5.2c0,0.2,0,0.5,0,0.7h-6.6
		c0.3,1.2,1.1,1.9,2.3,1.9c0.9,0,1.6-0.3,2.3-1l1.5,1.4c-0.9,1.1-2.2,1.8-3.9,1.8C133.7,94.1,131.6,92.1,131.6,89.2z M138.4,88.4
		c-0.2-1.2-0.9-2-2-2c-1.1,0-1.9,0.8-2.1,2H138.4z"/>
	<path class="st3" d="M142.1,84.4h2.7v1.9c0.6-1.3,1.4-2.2,3-2.1V87h-0.1c-1.8,0-2.9,1.1-2.9,3.4v3.5h-2.7V84.4z"/>
	<path class="st3" d="M149.1,91.2v-4.5H148v-2.3h1.1v-2.4h2.7v2.4h2.2v2.3h-2.2v4.1c0,0.6,0.3,0.9,0.9,0.9c0.5,0,0.9-0.1,1.3-0.3
		v2.2c-0.6,0.3-1.2,0.6-2.1,0.6C150.3,94.1,149.1,93.4,149.1,91.2z"/>
	<path class="st3" d="M155.2,80.9h2.9v2.4h-2.9V80.9z M155.3,84.4h2.7v9.6h-2.7V84.4z"/>
	<path class="st3" d="M160.1,86.7H159v-2.2h1.1v-0.6c0-1.1,0.3-1.8,0.8-2.3s1.2-0.7,2.2-0.7c0.9,0,1.4,0.1,1.9,0.3v2.2
		c-0.4-0.1-0.8-0.2-1.2-0.2c-0.6,0-1,0.3-1,1v0.4h2.2v2.2h-2.2v7.2h-2.7V86.7z M166.5,80.9h2.9v2.4h-2.9V80.9z M166.6,84.4h2.7v9.6
		h-2.7V84.4z"/>
	<path class="st3" d="M170.5,89.2L170.5,89.2c0-2.8,1.9-5,4.7-5c3.2,0,4.7,2.5,4.7,5.2c0,0.2,0,0.5,0,0.7h-6.6
		c0.3,1.2,1.1,1.9,2.3,1.9c0.9,0,1.6-0.3,2.3-1l1.6,1.4c-0.9,1.1-2.2,1.8-3.9,1.8C172.6,94.1,170.5,92.1,170.5,89.2z M177.3,88.4
		c-0.2-1.2-0.9-2-2-2c-1.1,0-1.9,0.8-2.1,2H177.3z"/>
	<path class="st3" d="M180.6,89.2L180.6,89.2c0-3.2,2.1-5,4.3-5c1.4,0,2.3,0.7,3,1.4v-4.7h2.7v13h-2.7v-1.4c-0.7,0.9-1.6,1.5-3,1.5
		C182.7,94.1,180.6,92.4,180.6,89.2z M187.9,89.2L187.9,89.2c0-1.6-1.1-2.7-2.3-2.7s-2.3,1-2.3,2.6v0c0,1.6,1.1,2.6,2.3,2.6
		S187.9,90.8,187.9,89.2z"/>
</g>
</svg>
